<svg xmlns="http://www.w3.org/2000/svg" width="29.625" height="28.63" viewBox="0 0 29.625 28.63">
  <defs>
    <style>
      .cls-1 {
        fill: #378d93;
        fill-rule: evenodd;
      }
    </style>
  </defs>
  <path id="ic_beach" class="cls-1" d="M595.418,1576.46l-0.189.99-9.833-1.89-1.525,9.13c4.8,0.77,8.924,3,10.994,6.16l-1.678,1.1c-1.772-2.7-5.386-4.62-9.646-5.29l-0.316,1.9-1.981-.34,0.3-1.78c-0.437-.02-0.87-0.06-1.314-0.06-5.327,0-10.291,2.01-12.648,5.13l-1.6-1.21c2.764-3.66,8.223-5.93,14.248-5.93,0.556,0,1.1.04,1.647,0.08l1.549-9.27-9.88-1.89,0.188-.99A11.041,11.041,0,1,1,595.418,1576.46Zm-15.914-9.57a8.99,8.99,0,0,0-3.558,4.81l2.946,0.57a13.065,13.065,0,0,1,4.175-6.8A8.935,8.935,0,0,0,579.5,1566.89Zm6.729-1.17a10.816,10.816,0,0,0-5.37,6.92l7.8,1.5A10.879,10.879,0,0,0,586.233,1565.72Zm5.816,3.58a8.909,8.909,0,0,0-2.761-2.6,13.1,13.1,0,0,1,1.347,7.82l2.947,0.56A8.978,8.978,0,0,0,592.049,1569.3Z" transform="translate(-565.969 -1563.34)"/>
</svg>
