<?xml version="1.0" encoding="utf-8"?>
<!-- Generator: Adobe Illustrator 13.0.0, SVG Export Plug-In . SVG Version: 6.00 Build 14948)  -->
<!DOCTYPE svg PUBLIC "-//W3C//DTD SVG 1.1//EN" "http://www.w3.org/Graphics/SVG/1.1/DTD/svg11.dtd">
<svg version="1.1" id="Layer_2" xmlns="http://www.w3.org/2000/svg" xmlns:xlink="http://www.w3.org/1999/xlink" x="0px" y="0px"
	 width="800px" height="600px" viewBox="0 0 800 600" enable-background="new 0 0 800 600" xml:space="preserve">
<g>
	<g>
		<path d="M312.5,234h175c4.97,0,9.001-4.029,9.001-9s-4.031-9-9.001-9h-175c-4.971,0-9,4.029-9,9S307.529,234,312.5,234z
			 M312.5,309.001h175c4.97,0,9.001-4.031,9.001-9c0-4.971-4.031-9-9.001-9h-175c-4.971,0-9,4.029-9,9
			C303.5,304.97,307.529,309.001,312.5,309.001z M312.5,184H400c4.968,0,9-4.03,9-9c0-4.972-4.031-9-9-9h-87.5c-4.972,0-9,4.028-9,9
			C303.5,179.971,307.528,184,312.5,184z M575,91H225c-4.971,0-9,4.028-9,8.999c0,4.971,4.029,9,9,9h28.5v328.5
			c0,2.368,0.96,4.689,2.636,6.363c1.676,1.676,3.995,2.635,6.364,2.635h63.203l-25.36,75.641c-1.58,4.712,0.958,9.813,5.672,11.393
			c0.949,0.318,1.914,0.469,2.862,0.469c3.761,0.001,7.269-2.376,8.53-6.141l27.28-81.361H391v66.001
			c0,4.971,4.029,9.001,8.999,9.001s9-4.03,9-9.001v-66.001h42.687l27.28,81.361c1.262,3.765,4.769,6.141,8.53,6.141
			c0.948,0,1.913-0.15,2.862-0.469c4.714-1.58,7.253-6.681,5.672-11.393l-25.36-75.641H537.5c2.401,0,4.662-0.936,6.363-2.635
			c1.699-1.701,2.635-3.962,2.635-6.363V109H575c4.969,0,9-4.03,9-9C584,95.028,579.969,91,575,91z M528.499,428.499h-257V109h257
			V428.499z M312.5,359h175c4.97,0,9.001-4.031,9.001-9c0-4.972-4.031-9.001-9.001-9.001h-175c-4.971,0-9,4.029-9,9.001
			C303.5,354.969,307.529,359,312.5,359z"/>
	</g>
</g>
</svg>
