<svg id="Layer_2" data-name="Layer 2" xmlns="http://www.w3.org/2000/svg" viewBox="0 0 48 48"><defs><style>.cls-1{fill:#458d94;}</style></defs><title>ic_fitness_centre</title><path class="cls-1" d="M37.48,22.61l-6.92-8.68L26.14,12.5a4.56,4.56,0,1,0-4.27,0l-4.43,1.43-6.92,8.68a2.2,2.2,0,0,0,.32,3.2A13.19,13.19,0,0,0,23,38.4v6.65h4.62l.71-7.34A13.11,13.11,0,0,0,37.17,25.8a2.19,2.19,0,0,0,.31-3.19ZM24,5.94A2.56,2.56,0,1,1,21.44,8.5,2.56,2.56,0,0,1,24,5.94ZM12.08,23.85l6.54-8.21,3.32-1.07a6.36,6.36,0,0,0,4.11,0l3.32,1.07,6.54,8.21a.31.31,0,0,1,0,.36.24.24,0,0,1-.17.08.23.23,0,0,1-.17-.07L28,16.65,27.19,29H20.92l-1-12.33-7.55,7.55a.22.22,0,0,1-.17.07.24.24,0,0,1-.17-.08A.3.3,0,0,1,12.08,23.85ZM23,31.34v3.45a.61.61,0,0,1-.55.65.59.59,0,0,1-.54-.53l-.56-3.56ZM12.86,26.19a2.22,2.22,0,0,0,.95-.55l4.49-4.49L19.08,31h.19l.66,4.21a2.75,2.75,0,0,0,.14.51A11.2,11.2,0,0,1,12.86,26.19ZM25.8,43.06H25V31h2Zm2.74-7.57L29,31h.09l.67-9.83,4.46,4.46a2.2,2.2,0,0,0,1,.55A11.12,11.12,0,0,1,28.54,35.49Z"/></svg>