<svg xmlns="http://www.w3.org/2000/svg" width="108.38" height="124.79" viewBox="0 0 108.38 124.79">
  <defs>
    <style>
      .cls-1 {
        fill: #253748;
        fill-rule: evenodd;
      }
    </style>
  </defs>
  <path id="ic_keys" class="cls-1" d="M9425.27,1238.13l8.87,26.69-4.31,5.93-6.99-2.16-8.95-26.92a17.19,17.19,0,0,1-15.47-11.77,17.272,17.272,0,0,1,8.54-20.81,39.208,39.208,0,0,0-21.86-18.1l-2.2,10.77-37.47-7.7,4.92-23.97,37.46,7.69-2.07,10.11a42.361,42.361,0,0,1,24.15,20.03A17.238,17.238,0,0,1,9425.27,1238.13Zm-72.48-64.34-3.66,17.83,31.33,6.43,3.65-17.82Zm66.14,73.09,2.97-.99,0.99,2.98-2.97.99,0.99,2.98,2.97-.99,0.99,2.97-2.97.99,3.4,10.26,3.31,1.02,2.05-2.81-8.13-24.43a18.194,18.194,0,0,1-2.31.98,18.433,18.433,0,0,1-3.07.71Zm9.23-26.88a14.111,14.111,0,1,0-.77,10.78A14.118,14.118,0,0,0,9428.16,1220Zm-20.22-1.21,8.33-2.77,0.99,2.98-8.33,2.77Zm-30.83,10.32a17.245,17.245,0,0,1,3.19,33.36v28.13l-5.96,4.26-5.96-4.26v-28.36a17.243,17.243,0,0,1,5.58-33.29,17.231,17.231,0,0,0-34.42,1.22v19.15h10.66v38.28h-24.45v-38.28h10.66v-19.77h0.03A20.352,20.352,0,0,1,9377.11,1229.11Zm-5.59,39.66h3.13v3.14h-3.13v3.14h3.13v3.13h-3.13v10.81l2.82,2.02,2.82-2.02v-25.76a17.226,17.226,0,0,1-2.51.21,17.949,17.949,0,0,1-3.13-.3v5.63Zm-10.97-22.59a14.105,14.105,0,1,0,14.1-14.12A14.133,14.133,0,0,0,9360.55,1246.18Zm-24.14,11.61v-5.34h-7.52v32.01h18.18v-32.01h-7.53v5.34h-3.13Zm42.32-16.01h-8.78v-3.13h8.78v3.13Z" transform="translate(-9325.75 -1170.09)"/>
</svg>
