<svg xmlns="http://www.w3.org/2000/svg" viewBox="0 0 15.87 35.7"><defs><style>.cls-1{fill:#378d93;}</style></defs><title>ic_kid_friendly</title><g id="Capa_2" data-name="Capa 2"><g id="Layer_2" data-name="Layer 2"><path class="cls-1" d="M13.17,14.19a9.12,9.12,0,0,0,2.7-6.48,7.7,7.7,0,0,0-2.43-5.54,8,8,0,0,0-11,0A7.81,7.81,0,0,0,0,7.78,8.59,8.59,0,0,0,2.51,14L3.7,15.16A6.35,6.35,0,0,0,5.23,16.3l-.86.85a2.28,2.28,0,0,0-.49,2.46A2.26,2.26,0,0,0,6,21h.42a6.66,6.66,0,0,0,1.86,5.7,4.68,4.68,0,0,1,0,6.59l-1,1L8.65,35.7l1-1a6.65,6.65,0,0,0,0-9.41A4.65,4.65,0,0,1,8.4,21H9.93a2.25,2.25,0,0,0,1.59-3.85l-.85-.84a5.36,5.36,0,0,0,1.33-1ZM8.88,17.34l1.22,1.23a.23.23,0,0,1,.06.27.24.24,0,0,1-.23.16H6a.24.24,0,0,1-.23-.16.23.23,0,0,1,.06-.27L7,17.34A1.3,1.3,0,0,1,7.77,17h.36A1.31,1.31,0,0,1,8.88,17.34Zm1.71-3.4A3.65,3.65,0,0,1,8.27,15a4,4,0,0,0-.6,0,4.09,4.09,0,0,1-2.55-1.23l-1.2-1.19A6.59,6.59,0,0,1,2,7.82,5.8,5.8,0,0,1,3.82,3.63a6,6,0,0,1,8.25,0,5.73,5.73,0,0,1,1.8,4.12,7,7,0,0,1-2.12,5Z"/></g></g></svg>