<svg xmlns="http://www.w3.org/2000/svg" width="66.41" height="85.25" viewBox="0 0 66.41 85.25">
  <defs>
    <style>
      .cls-1 {
        fill: #378d93;
        fill-rule: evenodd;
      }
    </style>
  </defs>
  <path id="ic_key" class="cls-1" d="M9148.41,1229.13a17.307,17.307,0,0,1-11.65,16.32v28.2l-5.98,4.27-5.98-4.27v-28.43a17.268,17.268,0,0,1,5.6-33.35,17.3,17.3,0,0,0-34.55,1.22v19.18h10.7v38.37H9082v-38.37h10.7v-19.81h0.03a20.433,20.433,0,0,1,40.83-.43A17.313,17.313,0,0,1,9148.41,1229.13Zm-63.26,6.29v32.07h18.25v-32.07h-7.55v5.34h-3.15v-5.34h-7.55Zm42.8,16.35h3.15v3.15h-3.15v3.14h3.15v3.15h-3.15v10.82l2.83,2.02,2.83-2.02v-25.81a17.344,17.344,0,0,1-2.51.2,17.165,17.165,0,0,1-3.15-.3v5.65Zm3.15-36.79a14.15,14.15,0,1,0,14.16,14.15A14.173,14.173,0,0,0,9131.1,1214.98Zm-4.72,6.6h8.81v3.15h-8.81v-3.15Z" transform="translate(-9082 -1192.66)"/>
</svg>
