<?xml version="1.0" encoding="utf-8"?>
<!-- Generator: Adobe Illustrator 13.0.0, SVG Export Plug-In . SVG Version: 6.00 Build 14948)  -->
<!DOCTYPE svg PUBLIC "-//W3C//DTD SVG 1.1//EN" "http://www.w3.org/Graphics/SVG/1.1/DTD/svg11.dtd">
<svg version="1.1" id="Layer_2" xmlns="http://www.w3.org/2000/svg" xmlns:xlink="http://www.w3.org/1999/xlink" x="0px" y="0px"
	 width="800px" height="600px" viewBox="0 0 800 600" enable-background="new 0 0 800 600" xml:space="preserve">
<g>
	<g>
		<path d="M507.049,203.574c-18.871-15.657-43.109-25.072-69.55-25.075c-26.399,0.003-50.603,9.388-69.462,25.001h-71.538
			c-51.365,0.004-92.994,41.633-93,93l0.002,87.499H241V421.5h92.999v-37.501h52.79c15.148,7.977,32.399,12.499,50.71,12.502
			c9.862-0.001,19.416-1.32,28.502-3.775l-0.003,28.773h93.001v-37.5l37.501-0.001V296.5
			C596.493,246.322,556.768,205.444,507.049,203.574z M315.999,403.499h-57v-19.5h57V403.499z M221.499,365.999V296.5
			c0.006-20.739,8.38-39.434,21.967-53.035c13.602-13.585,32.293-21.961,53.033-21.965l54.258-0.001
			c-13.959,18.319-22.255,41.188-22.257,66c0.003,30.836,12.809,58.674,33.387,78.5H221.499z M437.499,378.498
			c-16.597-0.003-32.119-4.43-45.499-12.174v-0.325h-0.55c-6.688-3.934-12.834-8.694-18.298-14.153
			c-16.481-16.496-26.648-39.19-26.653-64.347c0.004-25.157,10.172-47.851,26.653-64.346c16.496-16.481,39.189-26.649,64.347-26.653
			c25.158,0.004,47.851,10.172,64.348,26.653c16.481,16.496,26.647,39.189,26.651,64.346c-0.004,25.156-10.17,47.851-26.651,64.347
			C485.35,368.328,462.657,378.494,437.499,378.498z M540.999,403.499h-57.001V387.5h-3.084c2.482-1.079,4.916-2.248,7.298-3.502
			h11.787V384l41-0.001V403.499z M578.499,366h-19.5v-0.002h-45.886c20.577-19.826,33.383-47.664,33.387-78.499
			c-0.003-23.137-7.217-44.583-19.509-62.228c11.253,3.709,21.329,9.994,29.541,18.196c13.586,13.599,21.962,32.292,21.967,53.032
			V366z M437.499,228.5c-32.588,0.006-58.993,26.412-59,59c0.006,32.587,26.412,58.994,59,59c32.587-0.006,58.993-26.412,59.002-59
			C496.492,254.912,470.086,228.504,437.499,228.5z M466.49,316.49c-7.448,7.435-17.641,12.004-28.991,12.009
			c-11.351-0.005-21.543-4.574-28.991-12.009c-7.435-7.448-12.004-17.64-12.008-28.991c0.004-11.351,4.573-21.542,12.008-28.991
			c7.448-7.434,17.641-12.003,28.991-12.008c11.351,0.004,21.543,4.574,28.991,12.008c7.434,7.449,12.004,17.641,12.008,28.991
			C478.494,298.85,473.924,309.042,466.49,316.49z M249.999,296.5h50V278.5h-50V296.5z M249.999,334h50v-18h-50V334z"/>
	</g>
</g>
</svg>
