<svg xmlns="http://www.w3.org/2000/svg" width="13.28" height="13.28" viewBox="0 0 13.28 13.28">
  <defs>
    <style>
      .cls-1 {
        fill: #378d93;
        fill-rule: evenodd;
      }
    </style>
  </defs>
  <path id="ic_star" class="cls-1" d="M5270.87,1509.38l-3.54,2.21a0.347,0.347,0,0,1-.51-0.39l0.9-4.21a0.373,0.373,0,0,0-.11-0.36l-3.09-2.85a0.363,0.363,0,0,1,.19-0.63l4.11-.4a0.338,0.338,0,0,0,.28-0.21l1.63-3.97a0.337,0.337,0,0,1,.63,0l1.64,3.97a0.314,0.314,0,0,0,.28.21l4.1,0.4a0.363,0.363,0,0,1,.2.63l-3.1,2.85a0.392,0.392,0,0,0-.1.36l0.9,4.21a0.347,0.347,0,0,1-.51.39l-3.55-2.21A0.363,0.363,0,0,0,5270.87,1509.38Z" transform="translate(-5264.41 -1498.38)"/>
</svg>
