<svg xmlns="http://www.w3.org/2000/svg" viewBox="0 0 123.11 183"><defs><style>.cls-1{fill:#378d93;}</style></defs><title>ic_padlock</title><g id="Layer_2" data-name="Layer 2"><g id="Capa_3" data-name="Capa 3"><path class="cls-1" d="M123.11,61.5a61.58,61.58,0,0,0-116.4-28l3.56,1.82A57.53,57.53,0,1,1,4.11,64.95V64H33.19a29,29,0,1,0,0-4H.11v1H0c0,1.21,0,2.41.11,3.6V183h123V63h0C123.09,62.5,123.11,62,123.11,61.5ZM62.11,37a25,25,0,1,1-25,25A25,25,0,0,1,62.11,37Zm57,142H4.11V83.56a61.64,61.64,0,0,0,56,39.4v31h4V122.94a61.66,61.66,0,0,0,55-39.66Z"/></g></g></svg>