<svg id="Layer_2" data-name="Layer 2" xmlns="http://www.w3.org/2000/svg" viewBox="0 0 48 48"><defs><style>.cls-1{fill:#378d93;}</style></defs><title>ic-beach</title><path class="cls-1" d="M25.8,29.14l1.75-6.54,10.63,2.85.26-1a12,12,0,0,0-23.18-6.21l-.26,1,10.63,2.85L23.77,29H23.5a19.05,19.05,0,0,0-14,6.15L11,36.5A17,17,0,0,1,23.23,31l-.19.73,1.93.52.31-1.16A16.88,16.88,0,0,1,37,37.61l1.58-1.22A18.86,18.86,0,0,0,25.8,29.14Zm3.59-17.27c2.43,2.41,3.3,5.84,2.49,9.82l-9.56-2.56C23.61,15.28,26.08,12.74,29.39,11.87ZM36.72,23l-2.88-.77A13.32,13.32,0,0,0,33,13.54,10,10,0,0,1,36.72,23ZM21.85,12.71a10,10,0,0,1,3.57-1.24,13.31,13.31,0,0,0-5,7.13l-2.88-.77A9.92,9.92,0,0,1,21.85,12.71Z"/></svg>