<?xml version="1.0" encoding="utf-8"?>
<!-- Generator: Adobe Illustrator 13.0.0, SVG Export Plug-In . SVG Version: 6.00 Build 14948)  -->
<!DOCTYPE svg PUBLIC "-//W3C//DTD SVG 1.1//EN" "http://www.w3.org/Graphics/SVG/1.1/DTD/svg11.dtd">
<svg version="1.1" id="Layer_2" xmlns="http://www.w3.org/2000/svg" xmlns:xlink="http://www.w3.org/1999/xlink" x="0px" y="0px"
	 width="800px" height="600px" viewBox="0 0 800 600" enable-background="new 0 0 800 600" xml:space="preserve">
<title>ic-dinner</title>
<g>
	<path d="M240.999,384v-9.002C241.005,287.183,312.184,216.006,400,216l0,0v8.999V234c-38.965,0.004-74.159,15.768-99.703,41.298
		l0,0c-23.549,23.563-38.789,55.333-41.015,90.702l0,0h281.434c-2.227-35.369-17.466-67.139-41.016-90.702l0,0
		c-25.544-25.53-60.737-41.293-99.7-41.298l0,0v-9.001V216c87.815,0.004,158.992,71.183,159,158.998l0,0V384H240.999L240.999,384z"
		/>
	<path d="M212.499,421.5c-4.97,0-8.999-4.031-8.999-9l0,0c0-4.972,4.029-9.001,8.999-9.001l0,0h375c4.971,0,8.999,4.029,8.999,9.001
		l0,0c0,4.969-4.028,9-8.999,9l0,0H212.499L212.499,421.5z"/>
	<g>
		<g>
			<path d="M443.862,181.136c-1.675-1.677-3.994-2.636-6.362-2.636H409v-16c0-4.97-4.031-9-9-9c-4.972,0-9.002,4.03-9.002,9v16
				h-28.5c-2.369,0-4.687,0.959-6.363,2.636c-1.677,1.675-2.636,3.994-2.636,6.364c0,2.369,0.959,4.687,2.636,6.363
				s3.994,2.636,6.363,2.636H437.5c2.368,0,4.688-0.959,6.362-2.636c1.677-1.677,2.638-3.994,2.638-6.363
				C446.5,185.13,445.539,182.811,443.862,181.136z"/>
		</g>
	</g>
</g>
</svg>
