<?xml version="1.0" encoding="utf-8"?>
<!-- Generator: Adobe Illustrator 13.0.0, SVG Export Plug-In . SVG Version: 6.00 Build 14948)  -->
<!DOCTYPE svg PUBLIC "-//W3C//DTD SVG 1.1//EN" "http://www.w3.org/Graphics/SVG/1.1/DTD/svg11.dtd">
<svg version="1.1" id="Layer_2" xmlns="http://www.w3.org/2000/svg" xmlns:xlink="http://www.w3.org/1999/xlink" x="0px" y="0px"
	 width="800px" height="600px" viewBox="0 0 800 600" enable-background="new 0 0 800 600" xml:space="preserve">
<title>ic-lunch</title>
<g>
	<g>
		<path d="M646.497,230.671c0.05-0.931,0.077-1.87,0.077-2.814c-0.003-25.774-19.898-47.438-45.925-49.333h-1.3
			c-26.03,1.896-45.926,23.56-45.929,49.333c-0.002,0.927,0.026,1.858,0.079,2.791v27.93c-0.042,0.699-0.058,1.372-0.058,2.017
			c0.004,18.75,14.473,34.499,33.408,35.882l0.648,0.023H591v116c0,4.969,4.029,9,9,9c4.97,0,9.001-4.031,9.001-9v-116h3.499
			l0.65-0.023c18.919-1.389,33.388-17.128,33.394-35.884c0-0.617-0.015-1.238-0.047-1.864V230.671z M628.515,259.51
			c0.019,0.36,0.029,0.72,0.029,1.083c0.006,9.245-7.095,17.093-16.403,17.907h-9.206C602.014,278.181,601.029,278,600,278
			s-2.014,0.181-2.935,0.499h-9.213c-9.319-0.811-16.414-8.667-16.41-17.905c0-0.396,0.011-0.762,0.034-1.095l0.021-0.625v-28.5
			l-0.015-0.561c-0.043-0.661-0.063-1.313-0.063-1.957c-0.005-16.146,12.338-29.833,28.579-31.329
			c16.238,1.496,28.581,15.182,28.576,31.329c0,0.644-0.021,1.307-0.061,1.989l-0.016,0.529V259L628.515,259.51z"/>
	</g>
</g>
<g>
	<g>
		<path d="M246.5,237.5c0-0.006-0.001-0.013-0.001-0.02V187.5c0-4.971-4.03-8.999-9-8.999s-8.999,4.027-8.999,8.999v41h-57.001v-41
			c0-4.971-4.029-8.999-8.999-8.999c-4.971,0-9,4.027-9,8.999v49.981c0,0.007-0.001,0.013-0.001,0.02s0.001,0.013,0.001,0.02V250
			c0.004,22.604,16.125,41.426,37.499,45.62V412.5c0,4.97,4.03,9,9,9c4.972,0,9-4.03,9-9V295.619
			c21.375-4.194,37.495-23.015,37.5-45.62V237.52C246.5,237.513,246.5,237.507,246.5,237.5z M199.999,278.5
			c-15.737-0.029-28.471-12.763-28.5-28.5v-3.5H228.5v3.5C228.472,265.736,215.737,278.471,199.999,278.5z"/>
	</g>
</g>
<g>
	<path d="M328.5,300c0.006-39.492,32.008-71.494,71.5-71.5l0,0v9v9c-14.802,0.004-28.12,5.975-37.831,15.669l0,0
		c-9.695,9.711-15.665,23.029-15.669,37.831l0,0c0.004,14.802,5.975,28.12,15.669,37.829l0,0
		c9.711,9.696,23.029,15.665,37.831,15.669l0,0c14.802-0.004,28.12-5.973,37.829-15.669l0,0
		c9.696-9.709,15.665-23.027,15.669-37.829l0,0c-0.004-14.802-5.973-28.12-15.669-37.831l0,0
		c-9.709-9.695-23.027-15.665-37.829-15.669l0,0v-9v-9c39.49,0.006,71.492,32.008,71.5,71.5l0,0
		c-0.008,39.49-32.01,71.492-71.5,71.5l0,0C360.508,371.492,328.506,339.49,328.5,300L328.5,300z"/>
	<g>
		<path d="M266,300C266.004,225.99,325.99,166.006,400,166l0,0V175V184c-32.061,0.004-61.003,12.969-82.025,33.974l0,0
			C296.97,238.994,284.005,267.939,284,300l0,0c0.004,32.06,12.969,61.002,33.974,82.024l0,0
			c21.022,21.005,49.964,33.973,82.025,33.975l0,0c32.06-0.002,61.002-12.97,82.024-33.975l0,0
			c21.005-21.021,33.973-49.964,33.975-82.024l0,0c-0.002-32.061-12.97-61.005-33.975-82.025l0,0
			C461.002,196.97,432.06,184.005,400,184l0,0V175V166C474.009,166.004,533.992,225.99,534,300l0,0
			c-0.008,74.009-59.991,133.993-134,134l0,0C325.99,433.992,266.006,374.009,266,300L266,300z"/>
	</g>
</g>
</svg>
