<svg id="Layer_2" data-name="Layer 2" xmlns="http://www.w3.org/2000/svg" viewBox="0 0 48 48"><defs><style>.cls-1{fill:#378d93;}</style></defs><title>ic_airport_shutle</title><path class="cls-1" d="M39.4,23.26,35.61,17.4A3.06,3.06,0,0,0,33,16H12.65A3.09,3.09,0,0,0,9.7,18.21L8.14,23.53A2.74,2.74,0,0,0,7,25.75V28a4,4,0,0,0,4,4h.14a4,4,0,0,0,7.72,0H29.14a4,4,0,0,0,7.72,0H37a4,4,0,0,0,4-4V25.75A2.75,2.75,0,0,0,39.4,23.26Zm-5.47-4.77L36.85,23H31V18h2A1.07,1.07,0,0,1,33.93,18.49ZM17,23V18H29v5Zm-5.38-4.23a1.08,1.08,0,0,1,1-.77H15v5H10.38ZM15,33a2,2,0,1,1,2-2A2,2,0,0,1,15,33Zm18,0a2,2,0,1,1,2-2A2,2,0,0,1,33,33Zm6-5a2,2,0,0,1-2,2h-.14a4,4,0,0,0-7.72,0H18.86a4,4,0,0,0-7.72,0H11a2,2,0,0,1-2-2V25.75A.75.75,0,0,1,9.75,25h28.5a.75.75,0,0,1,.75.75Z"/><path class="cls-1" d="M21.89,10.14l.2.92.07.34a.71.71,0,0,0,.68.51l2.39-.51.51,2.36c.49.23.8.43,1.11.36a1,1,0,0,0,.81-1l.15-2.32,3.72-.8a.65.65,0,0,0,.32-1A1.83,1.83,0,0,0,29.2,8.5L26.88,9l-.95-1.83a1,1,0,0,0-1.13-.53.59.59,0,0,0-.45.7l.45,2.11-1.59.34-.7-2a.56.56,0,0,0-1.06.32Z"/></svg>