<svg id="Layer_2" data-name="Layer 2" xmlns="http://www.w3.org/2000/svg" viewBox="0 0 48 48"><defs><style>.cls-1{fill:#378d93;}</style></defs><title>ic_air_conditioning</title><path id="ic_air_conditioning" data-name="ic air conditioning" class="cls-1" d="M38.77,30.32l-.32,1.16-2.11-.61-1.19.7v1.3l1.24.69L38.45,33l.28,1.16-.83.23,1.1.65-.6,1-1.19-.7.27,1-1.15.27-.55-2.13-1.19-.69-1.1.65V36L35,37.5l-.83.83-.6-.65V39H32.34V37.59l-.73.74-.83-.83,1.47-1.62V34.53l-1.1-.65-1.24.7-.6,2-1.1-.33.23-.83-1.1.65-.6-1,1.19-.7-1-.27L27.29,33l2.11.6,1.1-.65V31.57l-1.19-.7-2.06.51L27,30.23l.87-.24-1.1-.64.6-1,1.19.69-.28-1,1.15-.28L30,29.9l1.1.65,1.19-.69V28.51L30.78,27l.83-.83.6.65V25.5H33.4v1.39l.73-.74L35,27,33.4,28.51v1.3l1.15.69,1.19-.69.6-2,1.19.37L37.3,29l1.1-.65.6,1L37.81,30ZM34,31.52l-1.15-.65-1.15.65v1.35l1.15.64L34,32.87Zm-3.84-7.9a6.77,6.77,0,0,0-8.79,0,8.73,8.73,0,0,1-11.12,0c-.42-.3-.82-.59-1.25-.84L10,21a15.83,15.83,0,0,1,1.43,1,6.75,6.75,0,0,0,8.79,0,8.72,8.72,0,0,1,11.13,0l.7.49-1.11,1.68c-.26-.17-.51-.35-.76-.54Zm0-5.76a6.77,6.77,0,0,0-8.79,0,8.7,8.7,0,0,1-11.12,0c-.42-.3-.82-.59-1.25-.84l1-1.75a14,14,0,0,1,1.43,1,6.77,6.77,0,0,0,8.79,0,8.7,8.7,0,0,1,11.13,0l.7.49L30.92,18.4c-.26-.17-.51-.35-.76-.54Zm0-5.22a6.77,6.77,0,0,0-8.79,0,8.73,8.73,0,0,1-11.12,0A11.5,11.5,0,0,0,9,11.8L10,10a15.78,15.78,0,0,1,1.43,1,6.77,6.77,0,0,0,8.79,0,8.74,8.74,0,0,1,11.13,0l.7.5-1.11,1.67c-.26-.17-.51-.35-.76-.53Z"/></svg>