<svg xmlns="http://www.w3.org/2000/svg" viewBox="0 0 157.67 157.8"><defs><style>.cls-1{fill:#378d93;}</style></defs><title>ic_begreen</title><g id="Layer_2" data-name="Layer 2"><g id="Capa_3" data-name="Capa 3"><path class="cls-1" d="M155.35,68.82,155,67.7l-1.12-.3a69.24,69.24,0,0,0-18.68-2.31v0l-.32,0A71.12,71.12,0,0,0,67.37,154l.3,1.12,1.12.3a69.21,69.21,0,0,0,17.81,2.32l.87,0v0l.43-.06a71.1,71.1,0,0,0,67.44-88.92ZM71,151.88a67.14,67.14,0,0,1,48.5-80.66,33.31,33.31,0,0,0-3.91,3.34A32.48,32.48,0,0,0,108,109.35l3,5.72a28.49,28.49,0,0,1-6.66,30.4,29,29,0,0,1-16.93,8.29A65.3,65.3,0,0,1,71,151.88Zm32.32-.23a33.34,33.34,0,0,0,3.91-3.34,32.48,32.48,0,0,0,7.52-34.79l-3-5.72a28.49,28.49,0,0,1,6.66-30.4,29,29,0,0,1,16.92-8.29A65.31,65.31,0,0,1,151.77,71a67.14,67.14,0,0,1-48.5,80.66Z"/><path class="cls-1" d="M22.86,92.69A71.1,71.1,0,0,0,90.29,3.77L90,2.65l-1.12-.3A69.23,69.23,0,0,0,70.19,0V0l-.33,0A71.12,71.12,0,0,0,2.32,89l.3,1.12,1.12.3a69.2,69.2,0,0,0,17.81,2.32l.87,0v0ZM86.72,5.92A67,67,0,0,1,68.9,69.06,67.21,67.21,0,0,1,38.21,86.59a33.31,33.31,0,0,0,3.91-3.34,32.48,32.48,0,0,0,7.52-34.79l-3-5.72a28.49,28.49,0,0,1,6.66-30.4A29,29,0,0,1,70.24,4,65.3,65.3,0,0,1,86.72,5.92ZM5.9,86.82A67.14,67.14,0,0,1,54.4,6.16,33.33,33.33,0,0,0,50.49,9.5,32.48,32.48,0,0,0,43,44.29L46,50a28.49,28.49,0,0,1-6.66,30.4,29,29,0,0,1-16.93,8.29A65.31,65.31,0,0,1,5.9,86.82Z"/></g></g></svg>