<svg id="Layer_2" data-name="Layer 2" xmlns="http://www.w3.org/2000/svg" viewBox="0 0 48 48"><defs><style>.cls-1{fill:#378d93;}</style></defs><title>ic_dryer</title><path class="cls-1" d="M32.16,12.93l-17.1-1.37A7.46,7.46,0,0,0,7,19v2.57a5.1,5.1,0,0,0,1,3L9.58,33.7A4,4,0,0,0,13.52,37H15a4,4,0,0,0,4-4V26.12l13.16-1.05a2,2,0,0,0,1.84-2V14.92A2,2,0,0,0,32.16,12.93ZM10.76,15a5.4,5.4,0,0,1,3.69-1.45l.45,0,13.1,1V23.4L12.34,24.65A3.09,3.09,0,0,1,10,23.84c-.06-.05-.1-.12-.16-.18L9,18.93A5.4,5.4,0,0,1,10.76,15ZM17,33a2,2,0,0,1-2,2H13.52a2,2,0,0,1-2-1.65l-1.24-7a5.1,5.1,0,0,0,1.79.33l.4,0,4.5-.36Zm13-9.76V14.76l2,.16v8.15Zm2-.16h0l.08,1Z"/><path class="cls-1" d="M14,23a4,4,0,1,0-4-4A4,4,0,0,0,14,23Zm0-6a2,2,0,1,1-2,2A2,2,0,0,1,14,17Z"/><path class="cls-1" d="M37.71,17.71a.41.41,0,0,1,.59,0,2.42,2.42,0,0,0,3.41,0l1-1-1.41-1.41-1,1a.41.41,0,0,1-.59,0,2.42,2.42,0,0,0-3.41,0l-1,1,1.41,1.41Z"/><path class="cls-1" d="M40.29,20.29a.41.41,0,0,1-.59,0,2.42,2.42,0,0,0-3.41,0l-1,1,1.41,1.41,1-1a.41.41,0,0,1,.59,0,2.42,2.42,0,0,0,3.41,0l1-1-1.41-1.41Z"/></svg>