<svg id="Layer_2" data-name="Layer 2" xmlns="http://www.w3.org/2000/svg" viewBox="0 0 48 48"><defs><style>.cls-1{fill:#378d93;}</style></defs><title>ic_green</title><path id="ic_green" data-name="ic green" class="cls-1" d="M13.12,28.72a17.54,17.54,0,0,1-4.36-.53L8,28v-.77a17.15,17.15,0,0,1,8.52-14.82,17.37,17.37,0,0,1,13.15-1.84l.76.19v.77A17.27,17.27,0,0,1,13.12,28.72ZM10,26.44a16.28,16.28,0,0,0,3.09.29A15.28,15.28,0,0,0,28.4,12.32a15.4,15.4,0,0,0-10.86,1.81,15.06,15.06,0,0,0-7,9.29A14.72,14.72,0,0,0,10,26.44Zm16.9,13-.42-.65a12.26,12.26,0,0,1,6.68-18.27l.75-.23.41.65a12.23,12.23,0,0,1-3.77,16.88l-.08.05a12.51,12.51,0,0,1-2.83,1.33Zm6.13-16.75a10.31,10.31,0,0,0-5.31,4.83,10.13,10.13,0,0,0-.65,7.85A11,11,0,0,0,27.8,37a10.57,10.57,0,0,0,1.63-.85A10.25,10.25,0,0,0,33.06,22.68Z"/></svg>