<svg id="Layer_2" data-name="Layer 2" xmlns="http://www.w3.org/2000/svg" viewBox="0 0 48 48"><defs><style>.cls-1{fill:#378d93;}</style></defs><title>ic_gym</title><path class="cls-1" d="M35.78,20H35V19a3,3,0,0,0-3-3H30v8H18V16H16a3,3,0,0,0-3,3v1h-.78A2.22,2.22,0,0,0,10,22.22v5.56A2.22,2.22,0,0,0,12.22,30H13v1a3,3,0,0,0,3,3h2V26H30v8h2a3,3,0,0,0,3-3V30h.78A2.22,2.22,0,0,0,38,27.78V22.22A2.22,2.22,0,0,0,35.78,20ZM12.22,28a.22.22,0,0,1-.22-.22V22.22a.22.22,0,0,1,.22-.22H13v6ZM16,32h0a1,1,0,0,1-1-1V19a1,1,0,0,1,1-1h0Zm17-1a1,1,0,0,1-1,1h0V18h0a1,1,0,0,1,1,1V31Zm3-3.24a.22.22,0,0,1-.22.22H35V22h.78a.22.22,0,0,1,.22.22Z"/></svg>