<svg id="Layer_2" data-name="Layer 2" xmlns="http://www.w3.org/2000/svg" viewBox="0 0 48 48"><defs><style>.cls-1{fill:#378d93;}</style></defs><title>ic_hot_tub</title><path class="cls-1" d="M17.79,16a2.55,2.55,0,0,0,0,3.61l1.1,1.1,1.41-1.41-1.1-1.1a.56.56,0,0,1,0-.79,2.56,2.56,0,0,0,0-3.61l-1.1-1.1-1.41,1.41,1.1,1.1A.56.56,0,0,1,17.79,16Z"/><path class="cls-1" d="M28.79,16a2.55,2.55,0,0,0,0,3.61l1.1,1.1,1.41-1.41-1.1-1.1a.56.56,0,0,1,0-.79,2.56,2.56,0,0,0,0-3.61l-1.1-1.1-1.41,1.41,1.1,1.1A.56.56,0,0,1,28.79,16Z"/><path class="cls-1" d="M23.76,12.67a1.58,1.58,0,0,1-.47,1.13,3.59,3.59,0,0,0,0,5.08l1.83,1.83,1.41-1.41-1.83-1.83a1.59,1.59,0,0,1,0-2.25,3.59,3.59,0,0,0,0-5.08L22.87,8.29,21.46,9.71l1.83,1.83A1.58,1.58,0,0,1,23.76,12.67Z"/><path class="cls-1" d="M38.55,22H10v2h1.36L15,32.07A5,5,0,0,0,19,35v2h2V35h8v2h2V34.73a5,5,0,0,0,3-2.67L37.64,24H39V22Zm-6.73,9.24A3,3,0,0,1,29.09,33H19.24a3,3,0,0,1-2.73-1.76L13.22,24H35.11Z"/></svg>