<svg id="Layer_2" data-name="Layer 2" xmlns="http://www.w3.org/2000/svg" viewBox="0 0 48 48"><defs><style>.cls-1{fill:#378d93;}</style></defs><title>ic_indoor_fireplace</title><path class="cls-1" d="M42,10H6v6H9V40H20.59l0,0h6.77l0,0H39V16h3ZM21.74,33.68,24,31.41l2.26,2.26A3.29,3.29,0,0,1,26.54,38H21.46A3.29,3.29,0,0,1,21.74,33.68ZM28.83,38a5.29,5.29,0,0,0-1.15-5.74L24,28.59l-3.68,3.68A5.29,5.29,0,0,0,19.17,38H17V28.86a7,7,0,1,1,14,0V38ZM37,38H33V28.86a9,9,0,1,0-18,0V38H11V16H37Zm3-24H8V12H40Z"/></svg>