<svg xmlns="http://www.w3.org/2000/svg" viewBox="0 0 174.17 193.73"><defs><style>.cls-1{fill:#378d93;}</style></defs><title>ic_personalize</title><g id="Layer_2" data-name="Layer 2"><g id="Capa_3" data-name="Capa 3"><path class="cls-1" d="M123,55V0H0V123H32.68A70.75,70.75,0,1,0,123,55ZM4,119V4H119V92.69a34.42,34.42,0,0,0-29-.94V34h4V30H82v4h4V93.79A34.56,34.56,0,0,0,69.3,119Zm130,4.5A30.5,30.5,0,1,1,103.5,93,30.53,30.53,0,0,1,134,123.5ZM36.68,123H69c0,.17,0,.33,0,.5a34.55,34.55,0,0,0,24.9,33.13l8.73,33.08A66.81,66.81,0,0,1,36.68,123Zm66.68,53.77L98.3,157.61a34.17,34.17,0,0,0,9.76.08Zm.93,12.94,8.11-32.88A34.48,34.48,0,0,0,122.92,95H123V59.16a66.75,66.75,0,0,1-18.71,130.55Z"/><polygon class="cls-1" points="33 30 29 30 29 34 33 34 33 95 37 95 37 34 41 34 41 30 37 30 33 30"/><polygon class="cls-1" points="63 30 59 30 59 68 55 68 55 72 59 72 59 96 63 96 63 72 67 72 67 68 63 68 63 30"/></g></g></svg>