<svg id="Layer_2" data-name="Layer 2" xmlns="http://www.w3.org/2000/svg" viewBox="0 0 48 48"><defs><style>.cls-1{fill:#378d93;}</style></defs><title>ic_pool</title><path id="ic_pool" data-name="ic pool" class="cls-1" d="M36.27,35.85a4.63,4.63,0,0,0-5.35,0,6.62,6.62,0,0,1-7.46,0,4.62,4.62,0,0,0-5.34,0,6.62,6.62,0,0,1-7.46,0A4.25,4.25,0,0,0,8,35V33a6.22,6.22,0,0,1,3.73,1.15,4.61,4.61,0,0,0,5.34,0,6.62,6.62,0,0,1,7.46,0,4.62,4.62,0,0,0,5.34,0,6.63,6.63,0,0,1,7.46,0A4.27,4.27,0,0,0,40,35v2A6.22,6.22,0,0,1,36.27,35.85ZM33.6,29a4.27,4.27,0,0,0-2.67.85,6.62,6.62,0,0,1-7.46,0,4.62,4.62,0,0,0-5.34,0,6.62,6.62,0,0,1-7.46,0A4.25,4.25,0,0,0,8,29V27a6.22,6.22,0,0,1,3.73,1.15A4.26,4.26,0,0,0,14.4,29a4.12,4.12,0,0,0,1.6-.28V15.15a4.1,4.1,0,0,1,3.17-4.07A4,4,0,0,1,24,15H22a2,2,0,0,0-2.65-1.9,2,2,0,0,0-1.35,2V17H28V15.15a4.1,4.1,0,0,1,3.17-4.07A4,4,0,0,1,36,15H34a2,2,0,0,0-2.65-1.9,2,2,0,0,0-1.35,2v13A6.08,6.08,0,0,1,33.6,27a6.22,6.22,0,0,1,3.73,1.15A4.33,4.33,0,0,0,40,29v2a6.22,6.22,0,0,1-3.73-1.15A4.27,4.27,0,0,0,33.6,29ZM20.8,27a6.22,6.22,0,0,1,3.73,1.15,4.25,4.25,0,0,0,2.67.85,4.86,4.86,0,0,0,.81-.06V25H18v2.63A5.82,5.82,0,0,1,20.79,27ZM18,19v4H28V19Z"/></svg>