<?xml version="1.0" encoding="utf-8"?>
<!-- Generator: Adobe Illustrator 13.0.0, SVG Export Plug-In . SVG Version: 6.00 Build 14948)  -->
<!DOCTYPE svg PUBLIC "-//W3C//DTD SVG 1.1//EN" "http://www.w3.org/Graphics/SVG/1.1/DTD/svg11.dtd">
<svg version="1.1" id="Layer_2" xmlns="http://www.w3.org/2000/svg" xmlns:xlink="http://www.w3.org/1999/xlink" x="0px" y="0px"
	 width="800px" height="600px" viewBox="0 0 800 600" enable-background="new 0 0 800 600" xml:space="preserve">
<title>ic_water</title>
<g>
	<g>
		<path d="M561.089,265.998c-0.114,0-0.189,0.002-0.228,0.002H439.114c-0.082-0.002-0.082,0-0.082,0
			c-0.87-0.002-1.73,0.053-2.577,0.154c-10.917,1.337-18.923,10.574-18.925,21.331c0,0.875,0.055,1.747,0.16,2.612l20.619,176.322
			c1.987,17.15,16.513,30.077,33.771,30.079h56.36l0.047-0.007c16.957-0.347,31.112-13.158,33.077-30.081l20.872-176.354
			c0.091-0.8,0.146-1.607,0.151-2.457v-0.261C582.489,275.519,572.898,266.004,561.089,265.998z M543.686,464.315
			c-0.933,8.095-7.776,14.187-15.896,14.183h-0.021c-0.051,0-0.114,0-0.189,0.002h-55.33c-0.029-0.001-0.057-0.002-0.085-0.002
			c-0.027,0-0.056,0.001-0.084,0.002c-8.113,0.002-14.963-6.09-15.89-14.159l-13.781-117.842H557.63L543.686,464.315z
			 M564.589,287.499c0,0.114-0.008,0.276-0.033,0.486l-4.795,40.515H440.305l-4.742-40.546c-0.022-0.204-0.031-0.345-0.033-0.469
			c-0.002-1.711,1.307-3.263,3.084-3.461c0.147-0.017,0.286-0.025,0.419-0.025h122.07c1.905,0.001,3.479,1.556,3.486,3.481V287.499z
			"/>
	</g>
</g>
<g>
	<g>
		<path d="M383.999,239.875c-0.004-20.093-16.281-36.37-36.375-36.376h-13.625V171.5h3.501c18.782-0.006,33.993-15.22,34.001-34.001
			c-0.008-18.78-15.219-33.993-34.001-34H262.5c-18.782,0.006-33.995,15.22-34.001,34c0.006,18.782,15.22,33.995,34.001,34.001h3.5
			v31.999h-13.626c-20.093,0.006-36.368,16.283-36.374,36.376v220.249c0.004,20.094,16.283,36.37,36.374,36.374h95.25
			c20.093-0.004,36.37-16.28,36.376-36.374L383.999,239.875z M366,356.498l-132,55L234,356l132-54.999V356.498z M246.5,137.499
			c0.015-8.832,7.167-15.983,16-16H337.5c8.832,0.017,15.983,7.168,16,16c-0.016,8.833-7.168,15.985-16,16H262.5
			C253.667,153.484,246.515,146.333,246.5,137.499z M283.999,171.5H316v31.999h-32.001V171.5z M252.374,221.5H266v0h67.999v0h13.625
			c10.146,0.019,18.356,8.231,18.375,18.375v41.624l-132,54.999l-0.001-96.623C234.018,229.73,242.229,221.519,252.374,221.5z
			 M347.624,478.498l-95.25,0.002c-10.145-0.02-18.356-8.231-18.374-18.376L234,431l132-55v84.124
			C365.98,470.269,357.771,478.48,347.624,478.498z"/>
	</g>
</g>
</svg>
